<svg xmlns="http://www.w3.org/2000/svg" width="246" height="48" viewBox="-2.75 -2.375 262.85 52.75"><path stroke="#fff" stroke-width="2.753" d="M0 24c0-13.301 10.8-24 24-24 13.303 0 24 10.699 24 24 0 13.3-10.8 24-24 24s-24-10.7-24-24z" fill="none"/><path fill="#fff" d="M7.4 12.5l7.901 10.099v15.401h-7.901v-25.5zm.8-1.5l16.301 20.898 7.399-9.599v-11.299h-23.7zm25 0v27h8.1v-27h-8.1zm23.8-.099h13.899l5.301 16.4 5.4-16.4h13.8v26.9h-8.599v-20.501l-6.701 20.501h-7.799l-6.699-20.501v20.501h-8.602v-26.9zm63.202 22.398h-12.001l-1.6 4.501h-10.8l12.8-26.8h11.501l12.801 26.801h-11.001l-1.7-4.502zm-2.201-5.798l-3.8-9.602-3.801 9.602h7.601zm15.599-16.6h10.501v20.201h16.5v6.699h-27.001v-26.9zm24.4 0h32.001v6.7h-10.801v20.2h-10.5v-20.201h-10.8v-6.699h.1zm34.701 0h19.801c3.299 0 5.8.6 7.5 2.001 1.799 1.299 2.698 2.899 2.698 4.799 0 1.6-.599 3-1.898 4.101-.901.8-1.999 1.3-3.701 1.799 2.399.5 4.203 1.302 5.4 2.401 1.199 1.099 1.699 2.5 1.699 4.199 0 1.401-.396 2.699-1.297 3.801-.802 1.1-2 1.999-3.403 2.698-.899.401-2.197.7-3.999.902-2.402.199-3.902.4-4.698.4h-18.2v-27.101h.098zm10.604 10.5h4.596c1.602 0 2.698-.202 3.501-.601.601-.501.902-1.102.902-1.999 0-.802-.301-1.402-.902-1.801-.597-.5-1.701-.6-3.4-.6h-4.597v5.001h-.1zm0 10.601h5.296c1.802 0 3.102-.202 3.803-.802.697-.501 1.098-1.2 1.098-2.001 0-.798-.402-1.4-1.098-1.9-.701-.499-2.001-.701-3.803-.701h-5.296v5.404zm19.799-21.101h11.699l6.799 9.1 6.902-9.1h11.596l-13.297 15.6v11.3h-10.5v-11.3l-13.199-15.6z"/></svg>